<svg width="358" height="123" viewBox="0 0 358 123" fill="none" xmlns="http://www.w3.org/2000/svg">
<path fill-rule="evenodd" clip-rule="evenodd" d="M7.94938 87.8617C20.9103 101.931 46.674 99.2826 65.4923 81.9458C84.3127 64.609 89.0627 39.1492 76.1017 25.0797C63.1408 11.0102 37.3791 13.6588 18.5588 30.9955C-0.261562 48.3323 -5.01156 73.7922 7.94938 87.8617ZM30.6545 66.8982C35.1759 71.8063 43.9689 71.0612 50.2951 65.2341C56.6213 59.4069 58.0822 50.7042 53.5627 45.7961C49.0412 40.8879 40.2463 41.633 33.922 47.4602C27.5959 53.2874 26.133 61.99 30.6545 66.8982Z" fill="black"/>
<path d="M55.4369 84.5L57.5 122L35.7335 94.2052L55.4369 84.5Z" fill="black"/>
<path d="M95.4981 16.5L120 16.5L107.5 61L82.5 61L95.4981 16.5Z" fill="black"/>
<path d="M145.029 16.6089L169.531 16.6089L157.031 61.1089L132.031 61.1089L145.029 16.6089Z" fill="black"/>
<path d="M97.0008 53C91.9952 85 135.501 90 147.003 54.5" stroke="black" stroke-width="23"/>
<path d="M94.0014 62.5C85.0028 92.5 133.1 92.5 144.501 59" stroke="black" stroke-width="23"/>
<path d="M227.497 46.5L248.5 29L274.5 66.5L251.5 80L227.497 46.5Z" fill="black"/>
<path d="M243.006 40.7998L241.369 15.7389L291 15.7389L284 40.7998L243.006 40.7998Z" fill="black"/>
<path d="M228.002 47C224.501 43.5 227.46 17 241.501 16C255.543 15 253.32 25.1841 253.32 25.1841L255.541 47.9336L228.002 47Z" fill="black"/>
<path d="M209.999 95L217.353 70.2441L262.985 70.088L259.5 95L209.999 95Z" fill="black"/>
<path d="M221.619 91L237.503 75.5C237.503 75.5 272.706 59.6759 274.605 66.0879C276.503 72.5 272.5 93.5 260.003 95C247.507 96.5 221.619 91 221.619 91Z" fill="black"/>
<path d="M174 16H199L177.5 95H152L174 16Z" fill="black"/>
<path d="M190 16H229L222 40.5H190V16Z" fill="black"/>
<path d="M181 49H217L213 63H181V49Z" fill="black"/>
<path d="M174 70H213L206 95H174V70Z" fill="black"/>
<path d="M310 20L336 17L314 95H288L310 20Z" fill="black"/>
<path d="M351.5 15.9713L345 41L288.5 41L295 15.9713L351.5 15.9713Z" fill="black"/>
</svg>
